<?xml version="1.0" encoding="UTF-8" standalone="no"?>
<svg
   width="48"
   height="46"
   fill="none"
   viewBox="0 0 48 46"
   version="1.1"
   id="svg31"
   sodipodi:docname="favicon.svg"
   xml:space="preserve"
   inkscape:version="1.4.2 (f4327f4, 2025-05-13)"
   xmlns:inkscape="http://www.inkscape.org/namespaces/inkscape"
   xmlns:sodipodi="http://sodipodi.sourceforge.net/DTD/sodipodi-0.dtd"
   xmlns:xlink="http://www.w3.org/1999/xlink"
   xmlns="http://www.w3.org/2000/svg"
   xmlns:svg="http://www.w3.org/2000/svg"><sodipodi:namedview
     id="namedview31"
     pagecolor="#ffffff"
     bordercolor="#111111"
     borderopacity="1"
     inkscape:showpageshadow="0"
     inkscape:pageopacity="0"
     inkscape:pagecheckerboard="1"
     inkscape:deskcolor="#d1d1d1"
     inkscape:zoom="5.9412342"
     inkscape:cx="61.266732"
     inkscape:cy="30.212578"
     inkscape:window-width="1920"
     inkscape:window-height="991"
     inkscape:window-x="-9"
     inkscape:window-y="-9"
     inkscape:window-maximized="1"
     inkscape:current-layer="svg31" /><mask
     id="a"
     width="48"
     height="46"
     x="0"
     y="0"
     maskUnits="userSpaceOnUse"
     style="mask-type:alpha"><path
       fill="#000"
       d="M25.842 44.938c-.664.844-2.021.375-2.021-.698V33.937a2.26 2.26 0 0 0-2.262-2.262H10.183c-.92 0-1.456-1.04-.92-1.788l7.48-10.471c1.07-1.498 0-3.579-1.842-3.579H1.133c-.92 0-1.456-1.04-.92-1.787L9.91.473c.214-.297.556-.474.92-.474h28.894c.92 0 1.456 1.04.92 1.788l-7.48 10.471c-1.07 1.498 0 3.578 1.842 3.578h11.377c.943 0 1.473 1.088.89 1.832L25.843 44.94z"
       style="fill:#000;fill-opacity:1"
       id="path2" /></mask><g
     mask="url(#a)"
     id="g17"><g
       filter="url(#b)"
       id="g2"><ellipse
         cx="5.508"
         cy="14.704"
         fill="#ede6ff"
         rx="5.508"
         ry="14.704"
         style="fill:#ede6ff;fill:color(display-p3 .9275 .9033 1);fill-opacity:1"
         transform="matrix(.00324 1 1 -.00324 -4.47 31.516)"
         id="ellipse2" /></g><g
       filter="url(#c)"
       id="g3"><ellipse
         cx="10.399"
         cy="29.851"
         fill="#ede6ff"
         rx="10.399"
         ry="29.851"
         style="fill:#ede6ff;fill:color(display-p3 .9275 .9033 1);fill-opacity:1"
         transform="matrix(.00324 1 1 -.00324 -39.328 7.883)"
         id="ellipse3" /></g><g
       filter="url(#d)"
       id="g4"><ellipse
         cx="5.508"
         cy="30.487"
         fill="#7e14ff"
         rx="5.508"
         ry="30.487"
         style="fill:#7e14ff;fill:color(display-p3 .4922 .0767 1);fill-opacity:1"
         transform="rotate(89.814 -25.913 -14.639)scale(1 -1)"
         id="ellipse4" /></g><g
       filter="url(#e)"
       id="g5"><ellipse
         cx="5.508"
         cy="30.599"
         fill="#7e14ff"
         rx="5.508"
         ry="30.599"
         style="fill:#7e14ff;fill:color(display-p3 .4922 .0767 1);fill-opacity:1"
         transform="rotate(89.814 -32.644 -3.334)scale(1 -1)"
         id="ellipse5" /></g><g
       filter="url(#f)"
       id="g6"><ellipse
         cx="5.508"
         cy="30.599"
         fill="#7e14ff"
         rx="5.508"
         ry="30.599"
         style="fill:#7e14ff;fill:color(display-p3 .4922 .0767 1);fill-opacity:1"
         transform="matrix(.00324 1 1 -.00324 -34.34 30.47)"
         id="ellipse6" /></g><g
       filter="url(#g)"
       id="g7"><ellipse
         cx="14.072"
         cy="22.078"
         fill="#ede6ff"
         rx="14.072"
         ry="22.078"
         style="fill:#ede6ff;fill:color(display-p3 .9275 .9033 1);fill-opacity:1"
         transform="rotate(93.35 24.506 48.493)scale(-1 1)"
         id="ellipse7" /></g><g
       filter="url(#h)"
       id="g8"><ellipse
         cx="3.47"
         cy="21.501"
         fill="#7e14ff"
         rx="3.47"
         ry="21.501"
         style="fill:#7e14ff;fill:color(display-p3 .4922 .0767 1);fill-opacity:1"
         transform="rotate(89.009 28.708 47.59)scale(-1 1)"
         id="ellipse8" /></g><g
       filter="url(#i)"
       id="g9"><ellipse
         cx="3.47"
         cy="21.501"
         fill="#7e14ff"
         rx="3.47"
         ry="21.501"
         style="fill:#7e14ff;fill:color(display-p3 .4922 .0767 1);fill-opacity:1"
         transform="rotate(89.009 28.708 47.59)scale(-1 1)"
         id="ellipse9" /></g><g
       filter="url(#j)"
       id="g10"><ellipse
         cx=".387"
         cy="8.972"
         fill="#7e14ff"
         rx="4.407"
         ry="29.108"
         style="fill:#7e14ff;fill:color(display-p3 .4922 .0767 1);fill-opacity:1"
         transform="rotate(39.51 .387 8.972)"
         id="ellipse10" /></g><g
       filter="url(#k)"
       id="g11"><ellipse
         cx="47.523"
         cy="-6.092"
         fill="#7e14ff"
         rx="4.407"
         ry="29.108"
         style="fill:#7e14ff;fill:color(display-p3 .4922 .0767 1);fill-opacity:1"
         transform="rotate(37.892 47.523 -6.092)"
         id="ellipse11" /></g><g
       filter="url(#l)"
       id="g12"><ellipse
         cx="41.412"
         cy="6.333"
         fill="#47bfff"
         rx="5.971"
         ry="9.665"
         style="fill:#47bfff;fill:color(display-p3 .2799 .748 1);fill-opacity:1"
         transform="rotate(37.892 41.412 6.333)"
         id="ellipse12" /></g><g
       filter="url(#m)"
       id="g13"><ellipse
         cx="-1.879"
         cy="38.332"
         fill="#7e14ff"
         rx="4.407"
         ry="29.108"
         style="fill:#7e14ff;fill:color(display-p3 .4922 .0767 1);fill-opacity:1"
         transform="rotate(37.892 -1.88 38.332)"
         id="ellipse13" /></g><g
       filter="url(#n)"
       id="g14"><ellipse
         cx="-1.879"
         cy="38.332"
         fill="#7e14ff"
         rx="4.407"
         ry="29.108"
         style="fill:#7e14ff;fill:color(display-p3 .4922 .0767 1);fill-opacity:1"
         transform="rotate(37.892 -1.88 38.332)"
         id="ellipse14" /></g><g
       filter="url(#o)"
       id="g15"><ellipse
         cx="35.651"
         cy="29.907"
         fill="#7e14ff"
         rx="4.407"
         ry="29.108"
         style="fill:#7e14ff;fill:color(display-p3 .4922 .0767 1);fill-opacity:1"
         transform="rotate(37.892 35.651 29.907)"
         id="ellipse15" /></g><g
       filter="url(#p)"
       id="g16"><ellipse
         cx="38.418"
         cy="32.4"
         fill="#47bfff"
         rx="5.971"
         ry="15.297"
         style="fill:#47bfff;fill:color(display-p3 .2799 .748 1);fill-opacity:1"
         transform="rotate(37.892 38.418 32.4)"
         id="ellipse16" /></g></g><defs
     id="defs31"><filter
       id="b"
       width="60.045"
       height="41.654"
       x="-19.77"
       y="16.149"
       color-interpolation-filters="sRGB"
       filterUnits="userSpaceOnUse"><feFlood
         flood-opacity="0"
         result="BackgroundImageFix"
         id="feFlood17" /><feBlend
         in="SourceGraphic"
         in2="BackgroundImageFix"
         result="shape"
         id="feBlend17" /><feGaussianBlur
         result="effect1_foregroundBlur_2002_17158"
         stdDeviation="7.659"
         id="feGaussianBlur17" /></filter><filter
       id="c"
       width="90.34"
       height="51.437"
       x="-54.613"
       y="-7.533"
       color-interpolation-filters="sRGB"
       filterUnits="userSpaceOnUse"><feFlood
         flood-opacity="0"
         result="BackgroundImageFix"
         id="feFlood18" /><feBlend
         in="SourceGraphic"
         in2="BackgroundImageFix"
         result="shape"
         id="feBlend18" /><feGaussianBlur
         result="effect1_foregroundBlur_2002_17158"
         stdDeviation="7.659"
         id="feGaussianBlur18" /></filter><filter
       id="d"
       width="79.355"
       height="29.4"
       x="-49.64"
       y="2.03"
       color-interpolation-filters="sRGB"
       filterUnits="userSpaceOnUse"><feFlood
         flood-opacity="0"
         result="BackgroundImageFix"
         id="feFlood19" /><feBlend
         in="SourceGraphic"
         in2="BackgroundImageFix"
         result="shape"
         id="feBlend19" /><feGaussianBlur
         result="effect1_foregroundBlur_2002_17158"
         stdDeviation="4.596"
         id="feGaussianBlur19" /></filter><filter
       id="e"
       width="79.579"
       height="29.4"
       x="-45.045"
       y="20.029"
       color-interpolation-filters="sRGB"
       filterUnits="userSpaceOnUse"><feFlood
         flood-opacity="0"
         result="BackgroundImageFix"
         id="feFlood20" /><feBlend
         in="SourceGraphic"
         in2="BackgroundImageFix"
         result="shape"
         id="feBlend20" /><feGaussianBlur
         result="effect1_foregroundBlur_2002_17158"
         stdDeviation="4.596"
         id="feGaussianBlur20" /></filter><filter
       id="f"
       width="79.579"
       height="29.4"
       x="-43.513"
       y="21.178"
       color-interpolation-filters="sRGB"
       filterUnits="userSpaceOnUse"><feFlood
         flood-opacity="0"
         result="BackgroundImageFix"
         id="feFlood21" /><feBlend
         in="SourceGraphic"
         in2="BackgroundImageFix"
         result="shape"
         id="feBlend21" /><feGaussianBlur
         result="effect1_foregroundBlur_2002_17158"
         stdDeviation="4.596"
         id="feGaussianBlur21" /></filter><filter
       id="g"
       width="74.749"
       height="58.852"
       x="15.756"
       y="-17.901"
       color-interpolation-filters="sRGB"
       filterUnits="userSpaceOnUse"><feFlood
         flood-opacity="0"
         result="BackgroundImageFix"
         id="feFlood22" /><feBlend
         in="SourceGraphic"
         in2="BackgroundImageFix"
         result="shape"
         id="feBlend22" /><feGaussianBlur
         result="effect1_foregroundBlur_2002_17158"
         stdDeviation="7.659"
         id="feGaussianBlur22" /></filter><filter
       id="h"
       width="61.377"
       height="25.362"
       x="23.548"
       y="2.284"
       color-interpolation-filters="sRGB"
       filterUnits="userSpaceOnUse"><feFlood
         flood-opacity="0"
         result="BackgroundImageFix"
         id="feFlood23" /><feBlend
         in="SourceGraphic"
         in2="BackgroundImageFix"
         result="shape"
         id="feBlend23" /><feGaussianBlur
         result="effect1_foregroundBlur_2002_17158"
         stdDeviation="4.596"
         id="feGaussianBlur23" /></filter><filter
       id="i"
       width="61.377"
       height="25.362"
       x="23.548"
       y="2.284"
       color-interpolation-filters="sRGB"
       filterUnits="userSpaceOnUse"><feFlood
         flood-opacity="0"
         result="BackgroundImageFix"
         id="feFlood24" /><feBlend
         in="SourceGraphic"
         in2="BackgroundImageFix"
         result="shape"
         id="feBlend24" /><feGaussianBlur
         result="effect1_foregroundBlur_2002_17158"
         stdDeviation="4.596"
         id="feGaussianBlur24" /></filter><filter
       id="j"
       width="56.045"
       height="63.649"
       x="-27.636"
       y="-22.853"
       color-interpolation-filters="sRGB"
       filterUnits="userSpaceOnUse"><feFlood
         flood-opacity="0"
         result="BackgroundImageFix"
         id="feFlood25" /><feBlend
         in="SourceGraphic"
         in2="BackgroundImageFix"
         result="shape"
         id="feBlend25" /><feGaussianBlur
         result="effect1_foregroundBlur_2002_17158"
         stdDeviation="4.596"
         id="feGaussianBlur25" /></filter><filter
       id="k"
       width="54.814"
       height="64.646"
       x="20.116"
       y="-38.415"
       color-interpolation-filters="sRGB"
       filterUnits="userSpaceOnUse"><feFlood
         flood-opacity="0"
         result="BackgroundImageFix"
         id="feFlood26" /><feBlend
         in="SourceGraphic"
         in2="BackgroundImageFix"
         result="shape"
         id="feBlend26" /><feGaussianBlur
         result="effect1_foregroundBlur_2002_17158"
         stdDeviation="4.596"
         id="feGaussianBlur26" /></filter><filter
       id="l"
       width="33.541"
       height="35.313"
       x="24.641"
       y="-11.323"
       color-interpolation-filters="sRGB"
       filterUnits="userSpaceOnUse"><feFlood
         flood-opacity="0"
         result="BackgroundImageFix"
         id="feFlood27" /><feBlend
         in="SourceGraphic"
         in2="BackgroundImageFix"
         result="shape"
         id="feBlend27" /><feGaussianBlur
         result="effect1_foregroundBlur_2002_17158"
         stdDeviation="4.596"
         id="feGaussianBlur27" /></filter><filter
       id="m"
       width="54.814"
       height="64.646"
       x="-29.286"
       y="6.009"
       color-interpolation-filters="sRGB"
       filterUnits="userSpaceOnUse"><feFlood
         flood-opacity="0"
         result="BackgroundImageFix"
         id="feFlood28" /><feBlend
         in="SourceGraphic"
         in2="BackgroundImageFix"
         result="shape"
         id="feBlend28" /><feGaussianBlur
         result="effect1_foregroundBlur_2002_17158"
         stdDeviation="4.596"
         id="feGaussianBlur28" /></filter><filter
       id="n"
       width="54.814"
       height="64.646"
       x="-29.286"
       y="6.009"
       color-interpolation-filters="sRGB"
       filterUnits="userSpaceOnUse"><feFlood
         flood-opacity="0"
         result="BackgroundImageFix"
         id="feFlood29" /><feBlend
         in="SourceGraphic"
         in2="BackgroundImageFix"
         result="shape"
         id="feBlend29" /><feGaussianBlur
         result="effect1_foregroundBlur_2002_17158"
         stdDeviation="4.596"
         id="feGaussianBlur29" /></filter><filter
       id="o"
       width="54.814"
       height="64.646"
       x="8.244"
       y="-2.416"
       color-interpolation-filters="sRGB"
       filterUnits="userSpaceOnUse"><feFlood
         flood-opacity="0"
         result="BackgroundImageFix"
         id="feFlood30" /><feBlend
         in="SourceGraphic"
         in2="BackgroundImageFix"
         result="shape"
         id="feBlend30" /><feGaussianBlur
         result="effect1_foregroundBlur_2002_17158"
         stdDeviation="4.596"
         id="feGaussianBlur30" /></filter><filter
       id="p"
       width="39.409"
       height="43.623"
       x="18.713"
       y="10.588"
       color-interpolation-filters="sRGB"
       filterUnits="userSpaceOnUse"><feFlood
         flood-opacity="0"
         result="BackgroundImageFix"
         id="feFlood31" /><feBlend
         in="SourceGraphic"
         in2="BackgroundImageFix"
         result="shape"
         id="feBlend31" /><feGaussianBlur
         result="effect1_foregroundBlur_2002_17158"
         stdDeviation="4.596"
         id="feGaussianBlur31" /></filter><rect
       x="193.3551"
       y="198.90596"
       width="764.16895"
       height="89.738968"
       id="rect152" /><linearGradient
       id="linearGradient136"
       inkscape:collect="always"><stop
         style="stop-color:#bcdee7;stop-opacity:1;"
         offset="0"
         id="stop136" /><stop
         style="stop-color:#a6c4cc;stop-opacity:1;"
         offset="1"
         id="stop137" /></linearGradient><linearGradient
       id="linearGradient132"
       inkscape:collect="always"><stop
         style="stop-color:#272727;stop-opacity:1;"
         offset="0.53892213"
         id="stop130" /><stop
         style="stop-color:#484848;stop-opacity:1;"
         offset="0.77345318"
         id="stop131" /><stop
         style="stop-color:#252525;stop-opacity:1;"
         offset="1"
         id="stop132" /></linearGradient><linearGradient
       id="linearGradient115"
       inkscape:collect="always"><stop
         style="stop-color:#cdcdcd;stop-opacity:1;"
         offset="0.72854292"
         id="stop114" /><stop
         style="stop-color:#414141;stop-opacity:1;"
         offset="1"
         id="stop115" /></linearGradient><linearGradient
       id="linearGradient113"
       inkscape:collect="always"><stop
         style="stop-color:#636363;stop-opacity:1;"
         offset="0"
         id="stop113" /><stop
         style="stop-color:#323232;stop-opacity:1;"
         offset="1"
         id="stop112" /></linearGradient><linearGradient
       id="linearGradient27"
       inkscape:collect="always"><stop
         style="stop-color:#e2e2e2;stop-opacity:1;"
         offset="0"
         id="stop28" /><stop
         style="stop-color:#ffffff;stop-opacity:1;"
         offset="1"
         id="stop29" /></linearGradient><linearGradient
       id="linearGradient25"
       inkscape:collect="always"><stop
         style="stop-color:#d9d9d9;stop-opacity:1;"
         offset="0"
         id="stop25" /><stop
         style="stop-color:#f1f1f1;stop-opacity:1;"
         offset="0.2489796"
         id="stop27" /><stop
         style="stop-color:#ffffff;stop-opacity:1;"
         offset="1"
         id="stop26" /></linearGradient><clipPath
       clipPathUnits="userSpaceOnUse"
       id="clipPath1"><path
         id="path1-0"
         style="fill:#484848;fill-opacity:0.73913;stroke:#666666;stroke-width:0.0772927;stroke-linecap:round;stroke-linejoin:round"
         d="M 64.410103,103.19848 H 177.74117 v 34.54331 H 64.410103 Z" /></clipPath><clipPath
       clipPathUnits="userSpaceOnUse"
       id="clipPath2"><rect
         style="fill:#484848;fill-opacity:0.73913;stroke:#666666;stroke-width:0.079375;stroke-linecap:round;stroke-linejoin:round"
         id="rect2"
         width="111.63059"
         height="31.382093"
         x="67.247345"
         y="71.730507" /></clipPath><linearGradient
       inkscape:collect="always"
       xlink:href="#linearGradient25"
       id="linearGradient26"
       x1="123.96206"
       y1="100.63526"
       x2="124.37525"
       y2="74.523521"
       gradientUnits="userSpaceOnUse"
       gradientTransform="translate(-67.158868,-72.190909)" /><filter
       inkscape:collect="always"
       style="color-interpolation-filters:sRGB"
       id="filter76"
       x="-0.17535961"
       y="-0.17535961"
       width="1.3507192"
       height="1.3507192"><feGaussianBlur
         inkscape:collect="always"
         stdDeviation="0.19383361"
         id="feGaussianBlur76" /></filter><radialGradient
       inkscape:collect="always"
       xlink:href="#linearGradient132"
       id="radialGradient110"
       gradientUnits="userSpaceOnUse"
       cx="95.780228"
       cy="98.873428"
       fx="95.780228"
       fy="98.873428"
       r="4.5450501"
       gradientTransform="translate(58.709909,0.00691635)" /><radialGradient
       inkscape:collect="always"
       xlink:href="#linearGradient115"
       id="radialGradient111"
       gradientUnits="userSpaceOnUse"
       cx="95.780228"
       cy="98.873428"
       fx="95.780228"
       fy="98.873428"
       r="3.0462"
       gradientTransform="translate(58.709909,0.00691635)" /><radialGradient
       inkscape:collect="always"
       xlink:href="#linearGradient113"
       id="radialGradient112"
       gradientUnits="userSpaceOnUse"
       gradientTransform="matrix(0.52289003,0,0,0.52289003,45.697696,47.1735)"
       cx="95.780228"
       cy="98.873428"
       fx="95.780228"
       fy="98.873428"
       r="3.0462" /><clipPath
       clipPathUnits="userSpaceOnUse"
       id="clipPath133"><rect
         style="fill:#343434;fill-opacity:0;stroke:#4d4d4d;stroke-width:0.132821;stroke-linecap:round;stroke-linejoin:round;stroke-dasharray:none;stroke-opacity:1"
         id="rect134"
         width="367.61984"
         height="28.924402"
         x="-36.388767"
         y="160.4838"
         ry="0.19273019" /></clipPath><clipPath
       clipPathUnits="userSpaceOnUse"
       id="clipPath140"><rect
         style="fill:url(#linearGradient141);fill-opacity:1;stroke:#a5d8e7;stroke-width:0.132969;stroke-linecap:round;stroke-linejoin:round;stroke-dasharray:none;stroke-opacity:1"
         id="rect141"
         width="153.54819"
         height="64.186447"
         x="43.508595"
         y="50.050327"
         ry="0" /></clipPath><linearGradient
       inkscape:collect="always"
       xlink:href="#linearGradient136"
       id="linearGradient141"
       gradientUnits="userSpaceOnUse"
       x1="113.78531"
       y1="107.88509"
       x2="126.27032"
       y2="50.794952" /><clipPath
       clipPathUnits="userSpaceOnUse"
       id="clipPath4"><path
         id="path4"
         style="fill:url(#linearGradient4);stroke:#666666;stroke-width:0.0264583;stroke-linecap:round;stroke-linejoin:round;stroke-dasharray:none"
         d="m 4.2538277,1.7079391 0.0036,1.160136 H 96.740668 c 2.201211,0.03179 3.499862,0.1742279 4.570252,1.2402349 0.54018,0.5379691 1.27119,1.460441 1.55339,2.610176 0.59611,2.4287141 1.52369,6.893624 1.85364,9.635588 0.20244,2.078642 0.0548,6.264734 0.0548,6.264734 l -7.504442,-0.239779 -0.009,-5.510775 c 0,0 -6.802879,-4.356161 -14.454931,-4.878772 H 4.2863836 l 0.04858,15.410429 6.3246794,0.984441 13.027628,5.29e-4 v -1.187519 c 0,0 -0.133893,-5.695347 5.021915,-5.622397 5.155806,0.07295 4.899956,5.697327 4.899956,5.697327 l -0.0021,1.11311 48.781517,0.004 v -1.31051 c 0,0 -0.378661,-5.51788 4.898409,-5.50354 5.277061,0.01434 5.04775,5.576404 5.04775,5.576404 l 0.02381,1.238686 12.899962,5.29e-4 c 0,0 3.18057,-0.638651 3.31298,-0.68264 0.16487,-0.05478 0.53031,-0.309746 0.58292,-0.395328 0.0309,-0.05035 0.0191,-0.321556 -0.002,-0.372586 -0.0137,-0.03283 -0.27078,-0.185518 -0.27078,-0.185518 l 0.0408,-1.378728 c 0,0 0.22751,-0.08448 0.29611,-0.144177 0.0423,-0.03683 0.0579,-0.891692 0.001,-0.964282 -0.0463,-0.05914 -0.25838,-0.187069 -0.25838,-0.187069 -0.55162,-0.181685 -1.61639,-0.295701 -2.18093,-0.22344 -0.41611,0.05326 -0.48883,-1.25563 -0.35514,-1.894962 0.34151,0.0101 2.53348,0.830766 2.53348,0.830766 l 0.12919,-0.454893 c 0,0 -0.11426,-1.479892 -0.21498,-1.860352 -0.1199,-0.452933 -0.85834,-1.113627 -0.85834,-1.113627 0,0 -1.22089,-0.144646 -1.45624,-0.301274 -0.5992,-0.398778 -0.62322,-0.825789 -0.62322,-0.825789 0,0 -0.77734,-5.069769 -1.41284,-7.549927 -0.54881,-2.1418315 -2.0655,-6.3029735 -2.0655,-6.3029735 l 0.72708,-0.510563 c 0,0 -0.16516,-0.618099 -0.69504,-0.9053709 C 101.64968,2.5134265 99.56592,1.7078435 97.252734,1.7078435 Z M 11.933463,21.384258 h 6.456623 c 0.202108,0 0.364836,0.162728 0.364836,0.364835 v 5.216735 c 0,0.20211 -0.162728,0.364837 -0.364836,0.364837 h -6.456623 c -0.202108,0 -0.364836,-0.162727 -0.364836,-0.364837 v -5.216735 c 0,-0.202107 0.162728,-0.364835 0.364836,-0.364835 z"
         sodipodi:nodetypes="cccssccccccccccsccccscccsscccsccssccscscsccsscsssssssss" /></clipPath><linearGradient
       inkscape:collect="always"
       xlink:href="#linearGradient25"
       id="linearGradient4"
       gradientUnits="userSpaceOnUse"
       gradientTransform="translate(-67.158867,-72.190909)"
       x1="123.96206"
       y1="100.63526"
       x2="124.37525"
       y2="74.523521" /><clipPath
       clipPathUnits="userSpaceOnUse"
       id="clipPath13"><g
         id="g15-4"><path
           id="path13"
           style="fill:url(#linearGradient26);stroke:#666666;stroke-width:0.0264583;stroke-linecap:round;stroke-linejoin:round;stroke-dasharray:none"
           d="m 4.2538277,1.7079391 0.0036,1.160136 H 96.740669 c 2.20121,0.03179 3.499861,0.174228 4.570251,1.240235 0.54018,0.537969 1.27119,1.460441 1.55339,2.610176 0.59611,2.428714 1.52369,6.8936239 1.85364,9.6355879 0.20244,2.078642 0.0548,6.264734 0.0548,6.264734 l -7.504441,-0.239779 -0.009,-5.510775 c 0,0 -6.80288,-4.356161 -14.45493,-4.878772 H 4.2863837 l 0.04858,15.410429 6.3246793,0.98444 13.027628,5.1e-4 V 27.19734 c 0,0 -0.133893,-5.695346 5.021916,-5.622396 5.155806,0.07295 4.899956,5.697327 4.899956,5.697327 l -0.002,1.11311 48.781516,0.004 v -1.31051 c 0,0 -0.37866,-5.51788 4.89841,-5.50354 5.27706,0.01434 5.04775,5.576403 5.04775,5.576403 l 0.0238,1.238687 12.899971,5.1e-4 c 0,0 3.18057,-0.638651 3.31298,-0.682641 0.16487,-0.05478 0.53031,-0.309745 0.58291,-0.395325 0.0309,-0.05035 0.0191,-0.321557 -0.002,-0.372587 -0.0137,-0.03283 -0.27078,-0.185519 -0.27078,-0.185519 l 0.0408,-1.378727 c 0,0 0.22751,-0.08448 0.29611,-0.144177 0.0423,-0.03683 0.0579,-0.891692 0.001,-0.964282 -0.0463,-0.05914 -0.25838,-0.187069 -0.25838,-0.187069 -0.55162,-0.181685 -1.61639,-0.295702 -2.18093,-0.22344 -0.41611,0.05326 -0.48883,-1.25563 -0.35514,-1.894962 0.34151,0.0101 2.53348,0.830766 2.53348,0.830766 l 0.12919,-0.454893 c 0,0 -0.11426,-1.479892 -0.21498,-1.860352 -0.1199,-0.452933 -0.85834,-1.113627 -0.85834,-1.113627 0,0 -1.22089,-0.144646 -1.45624,-0.301274 -0.5992,-0.398778 -0.62322,-0.825789 -0.62322,-0.825789 0,0 -0.77734,-5.069769 -1.41284,-7.549927 -0.54881,-2.1418319 -2.0655,-6.3029739 -2.0655,-6.3029739 l 0.72708,-0.510563 c 0,0 -0.16516,-0.618099 -0.69504,-0.905371 -0.83891,-0.454806 -2.922665,-1.260389 -5.235851,-1.260389 z M 11.933463,21.384258 h 6.456623 c 0.202108,0 0.364836,0.162728 0.364836,0.364835 v 5.216736 c 0,0.202108 -0.162728,0.364836 -0.364836,0.364836 h -6.456623 c -0.202108,0 -0.364836,-0.162728 -0.364836,-0.364836 v -5.216736 c 0,-0.202107 0.162728,-0.364835 0.364836,-0.364835 z"
           sodipodi:nodetypes="cccssccccccccccsccccscccsscccsccssccscscsccsscsssssssss" /><path
           id="path14"
           style="fill:url(#linearGradient16);fill-opacity:1;stroke:#666666;stroke-width:0.0264583;stroke-linecap:round;stroke-linejoin:round;stroke-dasharray:none"
           d="m 2.1753987,2.3396821 c 1.021218,-0.650226 2.08736,-0.631298 2.08736,-0.631298 l 0.07471,25.6954419 -2.832084,-0.21025 c -0.390782,-0.02901 -0.53019796,-0.427959 -0.53129096,-0.796358 0,0 -0.15103,-14.80902 -0.05547,-18.6937309 0.04554,-1.851244 0.23905196,-4.715802 1.25677696,-5.363805 z"
           sodipodi:nodetypes="sccsssss" /><path
           id="path15"
           style="fill:#e6e6e6;fill-opacity:1;stroke:#666666;stroke-width:0.0264583;stroke-linecap:round;stroke-linejoin:round;stroke-dasharray:none"
           d="m 4.3374687,27.403826 -2.832084,-0.21025 C 1.1146027,27.164566 0.99272274,26.765147 0.97409374,26.397218 l -0.16650898,-2.693399 0.0152,-0.294956 C 1.4702178,23.029341 2.4034898,22.606136 3.3444878,22.544889 l 0.976386,-0.0037 z"
           sodipodi:nodetypes="cssccccc" /></g></clipPath><linearGradient
       inkscape:collect="always"
       xlink:href="#linearGradient27"
       id="linearGradient16"
       gradientUnits="userSpaceOnUse"
       gradientTransform="translate(-67.158868,-72.190909)"
       x1="70.398338"
       y1="99.134216"
       x2="70.374397"
       y2="80.390007" /><clipPath
       clipPathUnits="userSpaceOnUse"
       id="clipPath19"><path
         id="path20"
         style="fill:url(#linearGradient4);stroke:#666666;stroke-width:0.0264583;stroke-linecap:round;stroke-linejoin:round;stroke-dasharray:none"
         d="m 4.2538277,1.7079391 0.0036,1.160136 H 96.740668 c 2.201211,0.03179 3.499862,0.1742279 4.570252,1.2402349 0.54018,0.5379691 1.27119,1.460441 1.55339,2.610176 0.59611,2.4287141 1.52369,6.893624 1.85364,9.635588 0.20244,2.078642 0.0548,6.264734 0.0548,6.264734 l -7.504442,-0.239779 -0.009,-5.510775 c 0,0 -6.802879,-4.356161 -14.454931,-4.878772 H 4.2863836 l 0.04858,15.410429 6.3246794,0.984441 13.027628,5.29e-4 v -1.187519 c 0,0 -0.133893,-5.695347 5.021915,-5.622397 5.155806,0.07295 4.899956,5.697327 4.899956,5.697327 l -0.0021,1.11311 48.781517,0.004 v -1.31051 c 0,0 -0.378661,-5.51788 4.898409,-5.50354 5.277061,0.01434 5.04775,5.576404 5.04775,5.576404 l 0.02381,1.238686 12.899962,5.29e-4 c 0,0 3.18057,-0.638651 3.31298,-0.68264 0.16487,-0.05478 0.53031,-0.309746 0.58292,-0.395328 0.0309,-0.05035 0.0191,-0.321556 -0.002,-0.372586 -0.0137,-0.03283 -0.27078,-0.185518 -0.27078,-0.185518 l 0.0408,-1.378728 c 0,0 0.22751,-0.08448 0.29611,-0.144177 0.0423,-0.03683 0.0579,-0.891692 0.001,-0.964282 -0.0463,-0.05914 -0.25838,-0.187069 -0.25838,-0.187069 -0.55162,-0.181685 -1.61639,-0.295701 -2.18093,-0.22344 -0.41611,0.05326 -0.48883,-1.25563 -0.35514,-1.894962 0.34151,0.0101 2.53348,0.830766 2.53348,0.830766 l 0.12919,-0.454893 c 0,0 -0.11426,-1.479892 -0.21498,-1.860352 -0.1199,-0.452933 -0.85834,-1.113627 -0.85834,-1.113627 0,0 -1.22089,-0.144646 -1.45624,-0.301274 -0.5992,-0.398778 -0.62322,-0.825789 -0.62322,-0.825789 0,0 -0.77734,-5.069769 -1.41284,-7.549927 -0.54881,-2.1418315 -2.0655,-6.3029735 -2.0655,-6.3029735 l 0.72708,-0.510563 c 0,0 -0.16516,-0.618099 -0.69504,-0.9053709 C 101.64968,2.5134265 99.56592,1.7078435 97.252734,1.7078435 Z M 11.933463,21.384258 h 6.456623 c 0.202108,0 0.364836,0.162728 0.364836,0.364835 v 5.216735 c 0,0.20211 -0.162728,0.364837 -0.364836,0.364837 h -6.456623 c -0.202108,0 -0.364836,-0.162727 -0.364836,-0.364837 v -5.216735 c 0,-0.202107 0.162728,-0.364835 0.364836,-0.364835 z"
         sodipodi:nodetypes="cccssccccccccccsccccscccsscccsccssccscscsccsscsssssssss" /></clipPath><clipPath
       clipPathUnits="userSpaceOnUse"
       id="clipPath24"><path
         id="path25"
         style="fill:url(#linearGradient4);stroke:#666666;stroke-width:0.0264583;stroke-linecap:round;stroke-linejoin:round;stroke-dasharray:none"
         d="m 4.2538277,1.7079391 0.0036,1.160136 H 96.740668 c 2.201211,0.03179 3.499862,0.1742279 4.570252,1.2402349 0.54018,0.5379691 1.27119,1.460441 1.55339,2.610176 0.59611,2.4287141 1.52369,6.893624 1.85364,9.635588 0.20244,2.078642 0.0548,6.264734 0.0548,6.264734 l -7.504442,-0.239779 -0.009,-5.510775 c 0,0 -6.802879,-4.356161 -14.454931,-4.878772 H 4.2863836 l 0.04858,15.410429 6.3246794,0.984441 13.027628,5.29e-4 v -1.187519 c 0,0 -0.133893,-5.695347 5.021915,-5.622397 5.155806,0.07295 4.899956,5.697327 4.899956,5.697327 l -0.0021,1.11311 48.781517,0.004 v -1.31051 c 0,0 -0.378661,-5.51788 4.898409,-5.50354 5.277061,0.01434 5.04775,5.576404 5.04775,5.576404 l 0.02381,1.238686 12.899962,5.29e-4 c 0,0 3.18057,-0.638651 3.31298,-0.68264 0.16487,-0.05478 0.53031,-0.309746 0.58292,-0.395328 0.0309,-0.05035 0.0191,-0.321556 -0.002,-0.372586 -0.0137,-0.03283 -0.27078,-0.185518 -0.27078,-0.185518 l 0.0408,-1.378728 c 0,0 0.22751,-0.08448 0.29611,-0.144177 0.0423,-0.03683 0.0579,-0.891692 0.001,-0.964282 -0.0463,-0.05914 -0.25838,-0.187069 -0.25838,-0.187069 -0.55162,-0.181685 -1.61639,-0.295701 -2.18093,-0.22344 -0.41611,0.05326 -0.48883,-1.25563 -0.35514,-1.894962 0.34151,0.0101 2.53348,0.830766 2.53348,0.830766 l 0.12919,-0.454893 c 0,0 -0.11426,-1.479892 -0.21498,-1.860352 -0.1199,-0.452933 -0.85834,-1.113627 -0.85834,-1.113627 0,0 -1.22089,-0.144646 -1.45624,-0.301274 -0.5992,-0.398778 -0.62322,-0.825789 -0.62322,-0.825789 0,0 -0.77734,-5.069769 -1.41284,-7.549927 -0.54881,-2.1418315 -2.0655,-6.3029735 -2.0655,-6.3029735 l 0.72708,-0.510563 c 0,0 -0.16516,-0.618099 -0.69504,-0.9053709 C 101.64968,2.5134265 99.56592,1.7078435 97.252734,1.7078435 Z M 11.933463,21.384258 h 6.456623 c 0.202108,0 0.364836,0.162728 0.364836,0.364835 v 5.216735 c 0,0.20211 -0.162728,0.364837 -0.364836,0.364837 h -6.456623 c -0.202108,0 -0.364836,-0.162727 -0.364836,-0.364837 v -5.216735 c 0,-0.202107 0.162728,-0.364835 0.364836,-0.364835 z"
         sodipodi:nodetypes="cccssccccccccccsccccscccsscccsccssccscscsccsscsssssssss" /></clipPath><clipPath
       clipPathUnits="userSpaceOnUse"
       id="clipPath29"><path
         id="path30"
         style="fill:url(#linearGradient4);stroke:#666666;stroke-width:0.0264583;stroke-linecap:round;stroke-linejoin:round;stroke-dasharray:none"
         d="m 4.2538277,1.7079391 0.0036,1.160136 H 96.740668 c 2.201211,0.03179 3.499862,0.1742279 4.570252,1.2402349 0.54018,0.5379691 1.27119,1.460441 1.55339,2.610176 0.59611,2.4287141 1.52369,6.893624 1.85364,9.635588 0.20244,2.078642 0.0548,6.264734 0.0548,6.264734 l -7.504442,-0.239779 -0.009,-5.510775 c 0,0 -6.802879,-4.356161 -14.454931,-4.878772 H 4.2863836 l 0.04858,15.410429 6.3246794,0.984441 13.027628,5.29e-4 v -1.187519 c 0,0 -0.133893,-5.695347 5.021915,-5.622397 5.155806,0.07295 4.899956,5.697327 4.899956,5.697327 l -0.0021,1.11311 48.781517,0.004 v -1.31051 c 0,0 -0.378661,-5.51788 4.898409,-5.50354 5.277061,0.01434 5.04775,5.576404 5.04775,5.576404 l 0.02381,1.238686 12.899962,5.29e-4 c 0,0 3.18057,-0.638651 3.31298,-0.68264 0.16487,-0.05478 0.53031,-0.309746 0.58292,-0.395328 0.0309,-0.05035 0.0191,-0.321556 -0.002,-0.372586 -0.0137,-0.03283 -0.27078,-0.185518 -0.27078,-0.185518 l 0.0408,-1.378728 c 0,0 0.22751,-0.08448 0.29611,-0.144177 0.0423,-0.03683 0.0579,-0.891692 0.001,-0.964282 -0.0463,-0.05914 -0.25838,-0.187069 -0.25838,-0.187069 -0.55162,-0.181685 -1.61639,-0.295701 -2.18093,-0.22344 -0.41611,0.05326 -0.48883,-1.25563 -0.35514,-1.894962 0.34151,0.0101 2.53348,0.830766 2.53348,0.830766 l 0.12919,-0.454893 c 0,0 -0.11426,-1.479892 -0.21498,-1.860352 -0.1199,-0.452933 -0.85834,-1.113627 -0.85834,-1.113627 0,0 -1.22089,-0.144646 -1.45624,-0.301274 -0.5992,-0.398778 -0.62322,-0.825789 -0.62322,-0.825789 0,0 -0.77734,-5.069769 -1.41284,-7.549927 -0.54881,-2.1418315 -2.0655,-6.3029735 -2.0655,-6.3029735 l 0.72708,-0.510563 c 0,0 -0.16516,-0.618099 -0.69504,-0.9053709 C 101.64968,2.5134265 99.56592,1.7078435 97.252734,1.7078435 Z M 11.933463,21.384258 h 6.456623 c 0.202108,0 0.364836,0.162728 0.364836,0.364835 v 5.216735 c 0,0.20211 -0.162728,0.364837 -0.364836,0.364837 h -6.456623 c -0.202108,0 -0.364836,-0.162727 -0.364836,-0.364837 v -5.216735 c 0,-0.202107 0.162728,-0.364835 0.364836,-0.364835 z"
         sodipodi:nodetypes="cccssccccccccccsccccscccsscccsccssccscscsccsscsssssssss" /></clipPath><clipPath
       clipPathUnits="userSpaceOnUse"
       id="clipPath42"><path
         id="path43"
         style="fill:url(#linearGradient4);stroke:#666666;stroke-width:0.0264583;stroke-linecap:round;stroke-linejoin:round;stroke-dasharray:none"
         d="m 4.2538277,1.7079391 0.0036,1.160136 H 96.740668 c 2.201211,0.03179 3.499862,0.1742279 4.570252,1.2402349 0.54018,0.5379691 1.27119,1.460441 1.55339,2.610176 0.59611,2.4287141 1.52369,6.893624 1.85364,9.635588 0.20244,2.078642 0.0548,6.264734 0.0548,6.264734 l -7.504442,-0.239779 -0.009,-5.510775 c 0,0 -6.802879,-4.356161 -14.454931,-4.878772 H 4.2863836 l 0.04858,15.410429 6.3246794,0.984441 13.027628,5.29e-4 v -1.187519 c 0,0 -0.133893,-5.695347 5.021915,-5.622397 5.155806,0.07295 4.899956,5.697327 4.899956,5.697327 l -0.0021,1.11311 48.781517,0.004 v -1.31051 c 0,0 -0.378661,-5.51788 4.898409,-5.50354 5.277061,0.01434 5.04775,5.576404 5.04775,5.576404 l 0.02381,1.238686 12.899962,5.29e-4 c 0,0 3.18057,-0.638651 3.31298,-0.68264 0.16487,-0.05478 0.53031,-0.309746 0.58292,-0.395328 0.0309,-0.05035 0.0191,-0.321556 -0.002,-0.372586 -0.0137,-0.03283 -0.27078,-0.185518 -0.27078,-0.185518 l 0.0408,-1.378728 c 0,0 0.22751,-0.08448 0.29611,-0.144177 0.0423,-0.03683 0.0579,-0.891692 0.001,-0.964282 -0.0463,-0.05914 -0.25838,-0.187069 -0.25838,-0.187069 -0.55162,-0.181685 -1.61639,-0.295701 -2.18093,-0.22344 -0.41611,0.05326 -0.48883,-1.25563 -0.35514,-1.894962 0.34151,0.0101 2.53348,0.830766 2.53348,0.830766 l 0.12919,-0.454893 c 0,0 -0.11426,-1.479892 -0.21498,-1.860352 -0.1199,-0.452933 -0.85834,-1.113627 -0.85834,-1.113627 0,0 -1.22089,-0.144646 -1.45624,-0.301274 -0.5992,-0.398778 -0.62322,-0.825789 -0.62322,-0.825789 0,0 -0.77734,-5.069769 -1.41284,-7.549927 -0.54881,-2.1418315 -2.0655,-6.3029735 -2.0655,-6.3029735 l 0.72708,-0.510563 c 0,0 -0.16516,-0.618099 -0.69504,-0.9053709 C 101.64968,2.5134265 99.56592,1.7078435 97.252734,1.7078435 Z M 11.933463,21.384258 h 6.456623 c 0.202108,0 0.364836,0.162728 0.364836,0.364835 v 5.216735 c 0,0.20211 -0.162728,0.364837 -0.364836,0.364837 h -6.456623 c -0.202108,0 -0.364836,-0.162727 -0.364836,-0.364837 v -5.216735 c 0,-0.202107 0.162728,-0.364835 0.364836,-0.364835 z"
         sodipodi:nodetypes="cccssccccccccccsccccscccsscccsccssccscscsccsscsssssssss" /></clipPath></defs><g
     id="g133"
     transform="matrix(4.9275394,0,0,4.9275394,-737.09882,-464.00167)"><circle
       style="fill:url(#radialGradient110);fill-opacity:1;stroke:#000000;stroke-width:0.256626;stroke-linecap:round;stroke-linejoin:round;stroke-dasharray:none;stroke-opacity:0"
       id="circle91"
       cx="154.49014"
       cy="98.880348"
       r="4.4167371" /><g
       id="g130"
       transform="matrix(0.87160222,0,0,0.87160222,19.836191,12.696263)"><circle
         style="fill:url(#radialGradient111);fill-opacity:1;stroke:#000000;stroke-width:0.264583;stroke-linecap:round;stroke-linejoin:round;stroke-dasharray:none;stroke-opacity:0"
         id="circle92"
         cx="154.49014"
         cy="98.880348"
         r="2.9139085" /><circle
         style="fill:#dddddd;fill-opacity:1;stroke:#000000;stroke-width:0.264583;stroke-linecap:round;stroke-linejoin:round;stroke-dasharray:none;stroke-opacity:0"
         id="path114"
         cx="154.49014"
         cy="98.880348"
         r="2.3443975" /><g
         id="g94"
         transform="translate(58.709909,0.00691635)"><circle
           style="fill:#000000;fill-opacity:0.272941;stroke:#000000;stroke-width:0.138348;stroke-linecap:round;stroke-linejoin:round;stroke-dasharray:none;stroke-opacity:0;filter:url(#filter76)"
           id="circle93"
           cx="95.780228"
           cy="98.873428"
           r="1.5236537" /><circle
           style="fill:url(#radialGradient112);fill-opacity:1;stroke:#000000;stroke-width:0.138348;stroke-linecap:round;stroke-linejoin:round;stroke-dasharray:none;stroke-opacity:0"
           id="circle94"
           cx="95.780228"
           cy="98.873428"
           r="1.5236537" /></g><g
         id="g107"
         transform="matrix(0.83237769,0,0,0.83237769,74.764812,16.573892)"
         style="fill:#a7a7a7;fill-opacity:1"><g
           id="g96"
           style="fill:#a7a7a7;fill-opacity:1"><circle
             style="fill:#a7a7a7;fill-opacity:1;stroke:#000000;stroke-width:0.264583;stroke-linecap:round;stroke-linejoin:round;stroke-dasharray:none;stroke-opacity:0"
             id="circle95"
             cx="95.780228"
             cy="96.685349"
             r="0.24357361" /><circle
             style="fill:#a7a7a7;fill-opacity:1;stroke:#000000;stroke-width:0.264583;stroke-linecap:round;stroke-linejoin:round;stroke-dasharray:none;stroke-opacity:0"
             id="circle96"
             cx="95.780228"
             cy="101.07693"
             r="0.24357361" /></g><g
           id="g98"
           transform="rotate(30,95.780228,98.881138)"
           style="fill:#a7a7a7;fill-opacity:1"><circle
             style="fill:#a7a7a7;fill-opacity:1;stroke:#000000;stroke-width:0.264583;stroke-linecap:round;stroke-linejoin:round;stroke-dasharray:none;stroke-opacity:0"
             id="circle97"
             cx="95.780228"
             cy="96.685349"
             r="0.24357361" /><circle
             style="fill:#a7a7a7;fill-opacity:1;stroke:#000000;stroke-width:0.264583;stroke-linecap:round;stroke-linejoin:round;stroke-dasharray:none;stroke-opacity:0"
             id="circle98"
             cx="95.780228"
             cy="101.07693"
             r="0.24357361" /></g><g
           id="g100"
           transform="rotate(60,95.780228,98.881138)"
           style="fill:#a7a7a7;fill-opacity:1"><circle
             style="fill:#a7a7a7;fill-opacity:1;stroke:#000000;stroke-width:0.264583;stroke-linecap:round;stroke-linejoin:round;stroke-dasharray:none;stroke-opacity:0"
             id="circle99"
             cx="95.780228"
             cy="96.685349"
             r="0.24357361" /><circle
             style="fill:#a7a7a7;fill-opacity:1;stroke:#000000;stroke-width:0.264583;stroke-linecap:round;stroke-linejoin:round;stroke-dasharray:none;stroke-opacity:0"
             id="circle100"
             cx="95.780228"
             cy="101.07693"
             r="0.24357361" /></g><g
           id="g102"
           transform="rotate(90,95.780228,98.881138)"
           style="fill:#a7a7a7;fill-opacity:1"><circle
             style="fill:#a7a7a7;fill-opacity:1;stroke:#000000;stroke-width:0.264583;stroke-linecap:round;stroke-linejoin:round;stroke-dasharray:none;stroke-opacity:0"
             id="circle101"
             cx="95.780228"
             cy="96.685349"
             r="0.24357361" /><circle
             style="fill:#a7a7a7;fill-opacity:1;stroke:#000000;stroke-width:0.264583;stroke-linecap:round;stroke-linejoin:round;stroke-dasharray:none;stroke-opacity:0"
             id="circle102"
             cx="95.780228"
             cy="101.07693"
             r="0.24357361" /></g><g
           id="g104"
           transform="rotate(120,95.780228,98.881138)"
           style="fill:#a7a7a7;fill-opacity:1"><circle
             style="fill:#a7a7a7;fill-opacity:1;stroke:#000000;stroke-width:0.264583;stroke-linecap:round;stroke-linejoin:round;stroke-dasharray:none;stroke-opacity:0"
             id="circle103"
             cx="95.780228"
             cy="96.685349"
             r="0.24357361" /><circle
             style="fill:#a7a7a7;fill-opacity:1;stroke:#000000;stroke-width:0.264583;stroke-linecap:round;stroke-linejoin:round;stroke-dasharray:none;stroke-opacity:0"
             id="circle104"
             cx="95.780228"
             cy="101.07693"
             r="0.24357361" /></g><g
           id="g106"
           transform="rotate(150,95.780228,98.881138)"
           style="fill:#a7a7a7;fill-opacity:1"><circle
             style="fill:#a7a7a7;fill-opacity:1;stroke:#000000;stroke-width:0.264583;stroke-linecap:round;stroke-linejoin:round;stroke-dasharray:none;stroke-opacity:0"
             id="circle105"
             cx="95.780228"
             cy="96.685349"
             r="0.24357361" /><circle
             style="fill:#a7a7a7;fill-opacity:1;stroke:#000000;stroke-width:0.264583;stroke-linecap:round;stroke-linejoin:round;stroke-dasharray:none;stroke-opacity:0"
             id="circle106"
             cx="95.780228"
             cy="101.07693"
             r="0.24357361" /></g></g><g
         id="g129"
         transform="translate(0.00398102)"><g
           id="g124"><path
             id="rect115"
             style="fill:#343434;stroke:#000000;stroke-width:0.326005;stroke-linecap:round;stroke-linejoin:round;stroke-opacity:0"
             d="m 154.08467,95.984572 0.3824,-0.02637 0.41889,0.02155 c 0.0312,0.0016 -3e-5,0.207542 -0.0329,0.299294 -0.0393,0.109732 -0.18526,0.196248 -0.30187,0.195107 l -0.12401,-0.0012 c -0.11654,-0.0011 -0.20704,-0.03045 -0.27869,-0.166293 -0.0544,-0.103091 -0.10208,-0.318841 -0.0639,-0.322026 z"
             sodipodi:nodetypes="scsssssss" /><path
             id="path124"
             style="fill:#343434;stroke:#000000;stroke-width:0.326005;stroke-linecap:round;stroke-linejoin:round;stroke-opacity:0"
             d="m 154.08467,101.77553 0.3824,0.0264 0.41889,-0.0215 c 0.0312,-0.002 -3e-5,-0.20754 -0.0329,-0.29929 -0.0393,-0.10974 -0.18526,-0.19625 -0.30187,-0.19511 l -0.12401,0.001 c -0.11654,0.001 -0.20704,0.0305 -0.27869,0.16629 -0.0544,0.1031 -0.10208,0.31885 -0.0639,0.32203 z"
             sodipodi:nodetypes="scsssssss" /></g><g
           id="g126"
           transform="rotate(60,154.48486,98.880066)"><path
             id="path125"
             style="fill:#343434;stroke:#000000;stroke-width:0.326005;stroke-linecap:round;stroke-linejoin:round;stroke-opacity:0"
             d="m 154.08467,95.984572 0.3824,-0.02637 0.41889,0.02155 c 0.0312,0.0016 -3e-5,0.207542 -0.0329,0.299294 -0.0393,0.109732 -0.18526,0.196248 -0.30187,0.195107 l -0.12401,-0.0012 c -0.11654,-0.0011 -0.20704,-0.03045 -0.27869,-0.166293 -0.0544,-0.103091 -0.10208,-0.318841 -0.0639,-0.322026 z"
             sodipodi:nodetypes="scsssssss" /><path
             id="path126"
             style="fill:#343434;stroke:#000000;stroke-width:0.326005;stroke-linecap:round;stroke-linejoin:round;stroke-opacity:0"
             d="m 154.08467,101.77553 0.3824,0.0264 0.41889,-0.0215 c 0.0312,-0.002 -3e-5,-0.20754 -0.0329,-0.29929 -0.0393,-0.10974 -0.18526,-0.19625 -0.30187,-0.19511 l -0.12401,0.001 c -0.11654,0.001 -0.20704,0.0305 -0.27869,0.16629 -0.0544,0.1031 -0.10208,0.31885 -0.0639,0.32203 z"
             sodipodi:nodetypes="scsssssss" /></g><g
           id="g128"
           transform="rotate(120,154.4865,98.879911)"><path
             id="path127"
             style="fill:#343434;stroke:#000000;stroke-width:0.326005;stroke-linecap:round;stroke-linejoin:round;stroke-opacity:0"
             d="m 154.08467,95.984572 0.3824,-0.02637 0.41889,0.02155 c 0.0312,0.0016 -3e-5,0.207542 -0.0329,0.299294 -0.0393,0.109732 -0.18526,0.196248 -0.30187,0.195107 l -0.12401,-0.0012 c -0.11654,-0.0011 -0.20704,-0.03045 -0.27869,-0.166293 -0.0544,-0.103091 -0.10208,-0.318841 -0.0639,-0.322026 z"
             sodipodi:nodetypes="scsssssss" /><path
             id="path128"
             style="fill:#343434;stroke:#000000;stroke-width:0.326005;stroke-linecap:round;stroke-linejoin:round;stroke-opacity:0"
             d="m 154.08467,101.77553 0.3824,0.0264 0.41889,-0.0215 c 0.0312,-0.002 -3e-5,-0.20754 -0.0329,-0.29929 -0.0393,-0.10974 -0.18526,-0.19625 -0.30187,-0.19511 l -0.12401,0.001 c -0.11654,0.001 -0.20704,0.0305 -0.27869,0.16629 -0.0544,0.1031 -0.10208,0.31885 -0.0639,0.32203 z"
             sodipodi:nodetypes="scsssssss" /></g></g><circle
         style="fill:#343434;fill-opacity:0;stroke:#4d4d4d;stroke-width:0.132821;stroke-linecap:round;stroke-linejoin:round;stroke-dasharray:none;stroke-opacity:1"
         id="circle129"
         cx="154.49014"
         cy="98.880348"
         r="2.9139085" /></g></g></svg>
